<svg style="padding:1rem;" version="1.1" id="Layer_1" xmlns="http://www.w3.org/2000/svg" xmlns:xlink="http://www.w3.org/1999/xlink" viewBox="0 0 512 512" xml:space="preserve"><g id="SVGRepo_bgCarrier" stroke-width="0"></g><g id="SVGRepo_tracerCarrier" stroke-linecap="round" stroke-linejoin="round"></g><g id="SVGRepo_iconCarrier"> <g> <g> <path d="M498.804,77.039c7.288,0,13.196-5.908,13.196-13.196V40.697C512,18.257,493.743,0,471.303,0H40.697 C18.257,0,0,18.257,0,40.697v23.146c0,7.288,5.908,13.196,13.196,13.196c8.841,0,16.033,7.192,16.033,16.033 c0,8.848-7.192,16.047-16.033,16.047C5.908,109.12,0,115.027,0,122.316v348.987C0,493.743,18.257,512,40.697,512h430.606 c22.44,0,40.697-18.257,40.697-40.697V122.316c0-7.288-5.908-13.196-13.196-13.196c-8.841,0-16.033-7.199-16.033-16.047 C482.77,84.233,489.964,77.039,498.804,77.039z M485.608,52.748c-16.953,5.561-29.23,21.536-29.23,40.325 c0,18.794,12.276,34.775,29.23,40.338v337.892c0,7.889-6.417,14.305-14.305,14.305H40.697c-7.889,0-14.305-6.417-14.305-14.305 V133.411c16.953-5.562,29.23-21.543,29.23-40.338c0-18.789-12.276-34.764-29.23-40.325V40.697c0-7.887,6.417-14.305,14.305-14.305 h430.606c7.889,0,14.305,6.417,14.305,14.305V52.748z"></path> </g> </g> <g> <g> <path d="M385.976,83.928h-3.286V69.61c0-7.288-5.908-13.196-13.196-13.196s-13.196,5.908-13.196,13.196v14.318h-19.003V69.61 c0-7.288-5.908-13.196-13.196-13.196c-7.288,0-13.196,5.908-13.196,13.196v14.318H291.9V69.61c0-7.288-5.908-13.196-13.196-13.196 s-13.196,5.908-13.196,13.196v14.318h-19.003V69.61c0-7.288-5.908-13.196-13.196-13.196s-13.196,5.908-13.196,13.196v14.318 H201.11V69.61c0-7.288-5.908-13.196-13.196-13.196s-13.196,5.908-13.196,13.196v14.318h-19.003V69.61 c0-7.288-5.908-13.196-13.196-13.196s-13.196,5.908-13.196,13.196v14.318h-3.299c-23.212,0-42.096,18.884-42.096,42.096v259.952 c0,23.219,18.884,42.109,42.096,42.109h3.299v14.305c0,7.288,5.908,13.196,13.196,13.196s13.196-5.908,13.196-13.196v-14.305 h19.003v14.305c0,7.288,5.908,13.196,13.196,13.196s13.196-5.908,13.196-13.196v-14.305h19.003v14.305 c0,7.288,5.908,13.196,13.196,13.196s13.196-5.908,13.196-13.196v-14.305h19.003v14.305c0,7.288,5.908,13.196,13.196,13.196 c7.288,0,13.196-5.908,13.196-13.196v-14.305h19.003v14.305c0,7.288,5.908,13.196,13.196,13.196s13.196-5.908,13.196-13.196 v-14.305h19.003v14.305c0,7.288,5.908,13.196,13.196,13.196s13.196-5.908,13.196-13.196v-14.305h3.286 c23.219,0,42.109-18.889,42.109-42.109V126.024C428.085,102.812,409.195,83.928,385.976,83.928z M401.693,385.976 c0,8.666-7.051,15.717-15.717,15.717H126.024c-8.659,0-15.703-7.051-15.703-15.717V126.024c0-8.659,7.044-15.703,15.703-15.703 h259.952c8.666,0,15.717,7.044,15.717,15.703V385.976z"></path> </g> </g> <g> <g> <path d="M196.373,265.138c-7.288,0-13.196,5.908-13.196,13.196c0,5.181-4.215,9.396-9.396,9.396c-5.189,0-9.409-4.215-9.409-9.396 v-44.656c0-5.181,4.22-9.396,9.409-9.396c5.181,0,9.396,4.215,9.396,9.396c0,7.288,5.908,13.196,13.196,13.196 c7.288,0,13.196-5.908,13.196-13.196c0-19.734-16.055-35.788-35.788-35.788c-19.74,0-35.801,16.055-35.801,35.788v44.656 c0,19.734,16.06,35.788,35.801,35.788c19.734,0,35.788-16.055,35.788-35.788C209.569,271.046,203.661,265.138,196.373,265.138z"></path> </g> </g> <g> <g> <path d="M360.837,197.891c-7.288,0-13.196,5.908-13.196,13.196v67.248c0,5.181-4.22,9.396-9.409,9.396 c-5.181,0-9.396-4.215-9.396-9.396v-67.248c0-7.288-5.908-13.196-13.196-13.196s-13.196,5.908-13.196,13.196v67.248 c0,19.734,16.055,35.788,35.788,35.788c19.74,0,35.801-16.055,35.801-35.788v-67.248 C374.034,203.798,368.126,197.891,360.837,197.891z"></path> </g> </g> <g> <g> <path d="M256.007,197.891h-22.605c-7.288,0-13.196,5.908-13.196,13.196v45.197v44.643c0,7.288,5.908,13.196,13.196,13.196 s13.196-5.908,13.196-13.196V269.48h9.409c19.74,0,35.801-16.06,35.801-35.801C291.808,213.945,275.747,197.891,256.007,197.891z M256.007,243.088h-9.409v-18.805h9.409c5.189,0,9.409,4.215,9.409,9.396C265.416,238.867,261.195,243.088,256.007,243.088z"></path> </g> </g> <g> <g> <path d="M151.176,128.386h-8.657c-7.288,0-13.196,5.908-13.196,13.196s5.908,13.196,13.196,13.196h8.657 c7.288,0,13.196-5.908,13.196-13.196S158.464,128.386,151.176,128.386z"></path> </g> </g> <g> <g> <path d="M233.309,128.386h-45.395c-7.288,0-13.196,5.908-13.196,13.196s5.908,13.196,13.196,13.196h45.395 c7.288,0,13.196-5.908,13.196-13.196S240.597,128.386,233.309,128.386z"></path> </g> </g> </g></svg>